<svg width="125" height="125" viewBox="0 0 125 125" fill="none" xmlns="http://www.w3.org/2000/svg">
<circle cx="62.5" cy="62.5" r="62.5" fill="#D6FFE9"/>
<path d="M51.7589 59.0979C50.0458 59.0979 48.6539 57.706 48.6539 55.993V53.4234C48.6539 51.7103 50.0458 50.3185 51.7589 50.3185C53.4719 50.3185 54.8638 51.7103 54.8638 53.4234V55.993C54.8638 57.706 53.4719 59.0979 51.7589 59.0979Z" fill="#3D3D3D"/>
<path d="M72.637 59.098C70.9239 59.098 69.532 57.7061 69.532 55.993V53.4235C69.532 51.7104 70.9239 50.3185 72.637 50.3185C74.35 50.3185 75.7419 51.7104 75.7419 53.4235V55.993C75.849 57.7061 74.4571 59.098 72.637 59.098Z" fill="#3D3D3D"/>
<path d="M103.684 85.0875L91.5885 76.296L98.3923 67.5046V50.6721L86.0807 27.2996L72.0413 15.1846H54.762L40.7225 27.2996L28.303 50.7793V67.6118L35.1067 76.4033L23.0112 85.1948L38.0226 98.4892L44.2864 85.1948L46.0143 103.421L63.5096 115L81.0049 103.421L82.7329 85.1948L88.9966 98.4892L103.684 85.0875ZM82.3009 63.2161C82.3009 63.2161 82.1929 63.3233 82.0849 63.3233C81.9769 63.4305 81.8689 63.4305 81.6529 63.5377C81.5449 63.5377 81.4369 63.6449 81.4369 63.7522C79.169 65.1459 72.6893 68.6839 65.2376 69.0056C64.5896 69.0056 63.9416 69.0056 63.4016 69.0056C62.7537 69.0056 62.1057 69.0056 61.5657 69.0056C57.4618 68.7911 53.79 67.719 50.8741 66.5397C50.6581 66.4325 50.4421 66.3253 50.2261 66.218C48.0662 65.2531 46.3383 64.2882 45.4743 63.7522C45.3663 63.6449 45.2584 63.6449 45.2584 63.5377C45.1504 63.4305 44.9343 63.3233 44.8263 63.3233C44.7184 63.2161 44.6104 63.2161 44.6104 63.2161V59.0348C46.3383 58.0698 47.9583 57.2121 49.5782 56.5689C53.358 54.9607 56.5979 54.2101 59.1898 53.7813C60.2698 53.5669 61.2417 53.4597 61.9977 53.4597C62.7537 53.3524 63.2936 53.3525 63.6176 53.3525C63.9416 53.3525 64.4816 53.3524 65.2376 53.4597C65.9935 53.5669 66.9655 53.6741 68.0454 53.7813C70.5293 54.2101 73.8772 55.0679 77.6571 56.5689C79.277 57.2121 80.8969 58.0698 82.6249 59.0348V63.2161H82.3009Z" fill="url(#paint0_linear_285_2)"/>
<path d="M30.5059 91.6302L43.9963 77.3903L34.7886 67.219V52.6579L43.0327 28.0326L57.0584 15.1846H54.4888L40.5702 27.2831L28.2575 50.7307V67.5402L35.0027 76.2126L23.0112 84.992L30.5059 91.6302Z" fill="url(#paint1_linear_285_2)"/>
<defs>
<linearGradient id="paint0_linear_285_2" x1="44.3641" y1="103.961" x2="89.4938" y2="25.2232" gradientUnits="userSpaceOnUse">
<stop stop-color="#1AEFFF" stop-opacity="0.6"/>
<stop offset="1" stop-color="#FFFD84"/>
</linearGradient>
<linearGradient id="paint1_linear_285_2" x1="23.0606" y1="53.4214" x2="57.0425" y2="53.4214" gradientUnits="userSpaceOnUse">
<stop stop-color="#1AEFFF" stop-opacity="0.3"/>
<stop offset="1" stop-color="#45D9D9"/>
</linearGradient>
</defs>
</svg>
