<svg width="156" height="185" viewBox="0 0 156 185" fill="none" xmlns="http://www.w3.org/2000/svg">
<path d="M61.8243 76.3211C58.9433 75.9783 56.881 73.359 57.2238 70.478L57.738 66.1565C58.0808 63.2755 60.7002 61.2133 63.5812 61.5561C66.4622 61.899 68.5244 64.5182 68.1816 67.3992L67.6674 71.7208C67.3246 74.6017 64.7053 76.664 61.8243 76.3211Z" fill="white"/>
<path d="M97.1164 80.5204C94.2354 80.1776 92.1732 77.5583 92.516 74.6773L93.0303 70.3558C93.3731 67.4748 95.9924 65.4126 98.8733 65.7554C101.754 66.0982 103.817 68.7175 103.474 71.5985L102.96 75.92C102.617 78.801 99.9974 80.8632 97.1164 80.5204Z" fill="white"/>
<path d="M122.612 116.696L135.669 103.271L139.034 74.993L123.101 33.0933L102.205 9.96571L73.5069 6.55082L47.7676 24.1292L22.447 61.12L19.0607 89.5781L28.6033 105.692L6.75695 118.071L29.031 143.372L42.0919 122.276L41.3182 153.237L68.0606 176.147L99.4325 160.152L105.946 129.874L113.691 153.446L141.281 134.078L122.612 116.696ZM77.14 98.3158C55.9749 95.7973 39.5703 86.904 40.5777 78.4386C41.585 69.9732 59.6184 65.1777 80.7834 67.6962C101.949 70.2147 118.353 79.108 117.346 87.5734C116.339 96.0388 98.305 100.834 77.14 98.3158Z" fill="url(#paint0_linear_0_17)" fill-opacity="0.9"/>
<path d="M18.0791 130.34L43.6166 109.092L30.1667 90.143L33.0807 65.6545L51.8734 25.8901L78.0326 7.08944L73.7112 6.57521L47.882 24.1368L22.4825 61.1064L19.1187 89.3762L28.727 105.311L6.8032 117.676L18.0791 130.34Z" fill="black"/>
<defs>
<linearGradient id="paint0_linear_0_17" x1="10.79" y1="84.1411" x2="144.91" y2="100.1" gradientUnits="userSpaceOnUse">
<stop stop-color="#171717"/>
<stop offset="1"/>
</linearGradient>
</defs>
</svg>
